<?xml version="1.0" standalone="no"?>
<!DOCTYPE svg PUBLIC "-//W3C//DTD SVG 20010904//EN"
 "http://www.w3.org/TR/2001/REC-SVG-20010904/DTD/svg10.dtd">
<svg version="1.0" xmlns="http://www.w3.org/2000/svg"
 width="120.000000pt" height="35.000000pt" viewBox="20 60 100.000000 80.000000"
 preserveAspectRatio="xMidYMid meet">

<g transform="translate(0.000000,200.000000) scale(0.100000,-0.100000)"
fill="#F1641E" stroke="none">
<path d="M133 1353 c-20 -2 -33 -10 -33 -18 0 -8 15 -18 33 -23 l32 -8 3 -212
2 -211 -32 -9 c-18 -4 -34 -16 -36 -25 -3 -15 8 -17 92 -17 87 0 96 2 96 19 0
13 -9 20 -30 25 l-30 5 0 75 0 74 70 4 c74 4 105 19 144 71 28 38 33 131 9
177 -30 57 -72 74 -188 76 -55 1 -115 0 -132 -3z m236 -70 c43 -35 44 -134 2
-176 -14 -15 -37 -22 -81 -25 l-60 -4 0 111 0 111 59 0 c41 0 65 -5 80 -17z"/>
<path d="M978 1323 c-14 -3 -18 -15 -18 -54 l0 -49 -35 0 c-31 0 -35 -3 -35
-25 0 -22 4 -25 35 -25 l35 0 0 -127 c0 -183 15 -223 85 -223 34 0 87 28 82
43 -2 7 -23 12 -47 12 -55 0 -58 7 -59 173 l-1 122 55 0 c52 0 55 1 55 24 0
23 -4 25 -52 28 l-53 3 -3 53 c-3 52 -6 55 -44 45z"/>
<path d="M635 1221 c-62 -28 -105 -111 -105 -204 0 -111 54 -184 143 -194 75
-9 182 41 156 73 -9 11 -15 11 -40 -1 -16 -9 -48 -18 -72 -21 -37 -5 -47 -2
-75 21 -28 23 -52 75 -52 113 0 9 32 12 125 12 l125 0 0 50 c0 58 -18 106 -49
134 -24 22 -121 32 -156 17z m115 -63 c11 -12 20 -27 20 -32 0 -6 3 -21 6 -33
6 -23 5 -23 -85 -23 -90 0 -91 0 -91 24 0 14 12 38 26 55 33 39 92 43 124 9z"/>
<path d="M1253 1220 c-28 -11 -63 -67 -63 -98 0 -43 28 -79 77 -101 114 -52
118 -54 121 -88 4 -43 -26 -63 -95 -63 -51 0 -52 0 -55 33 -2 24 -8 33 -25 35
-21 3 -23 0 -23 -51 l0 -54 38 -7 c135 -22 222 24 222 119 0 52 -21 73 -112
114 -70 31 -91 54 -81 89 6 26 54 41 98 32 23 -4 31 -12 33 -33 2 -18 9 -27
21 -27 14 0 20 10 24 43 3 23 2 46 -3 51 -13 13 -151 18 -177 6z"/>
<path d="M1563 1223 c-46 -3 -63 -8 -63 -18 0 -8 10 -17 23 -20 18 -5 32 -34
85 -180 34 -95 62 -178 62 -184 0 -23 -40 -90 -66 -110 -15 -12 -40 -21 -55
-21 -24 0 -29 -4 -29 -25 0 -20 5 -25 24 -25 38 0 78 18 114 53 36 34 62 98
138 331 44 134 52 151 77 160 16 6 27 18 27 30 0 16 -5 18 -37 12 -21 -3 -57
-6 -80 -6 -33 0 -43 -4 -43 -16 0 -9 9 -18 20 -21 11 -3 20 -10 20 -17 0 -26
-74 -266 -80 -259 -4 5 -24 61 -44 127 -21 65 -40 124 -42 131 -3 7 6 15 20
19 30 7 38 47 9 44 -10 -1 -46 -3 -80 -5z"/>
</g>
</svg>
